<svg xmlns="http://www.w3.org/2000/svg" width="130" height="130" viewBox="0 0 130 130" fill="none"><g clip-path="url(#clip0_70_11)"><circle cx="65" cy="65" r="64.5" stroke="#F1F2F4"></circle><path d="M65.2617 28.4023L64.8516 28.7961V32.3891C64.8516 37.0977 64.6055 36.7531 68.0344 36.8188L70.5937 36.868V38.7383V40.5922L69.9867 40.707C69.6422 40.7727 60.9633 40.8875 50.693 40.9367L32.0062 41.0352L31.6945 41.4289C31.0383 42.2328 31.2023 42.6758 33.8602 47.0891C35.2219 49.3531 36.4852 51.3383 36.6656 51.4859C36.9609 51.7484 37.4859 51.7813 42.3094 51.7813H47.625V50.3867V48.9922H42.9984H38.3555L36.7641 46.3672L35.1562 43.7422H48.232H61.3078L59.8312 44.6609C54.8766 47.7781 50.9391 52.1914 48.4125 57.4742L47.5922 59.1641H37.1906H26.7891V60.5586V61.9531H36.7312C45.8859 61.9531 46.6734 61.9695 46.575 62.2156C46.5094 62.3633 46.2633 63.4297 46.0336 64.5617C45.6234 66.4813 45.5906 66.9078 45.5906 70.5664C45.5906 74.2086 45.6234 74.6516 46.0336 76.5711C46.8047 80.2133 48.2156 83.7406 50.1352 86.8086C52.6617 90.8609 56.0414 94.093 61.0125 97.1773C61.2586 97.325 59.0766 97.3578 51.0867 97.3414L40.8328 97.3086L39.2414 94.6836L37.6336 92.0586L43.4578 92.0094L49.2656 91.9766V90.5656V89.1711L41.8828 89.2203L34.5164 89.2695L34.1391 89.6305C33.4172 90.3688 33.5812 90.8117 36.2062 95.1758C37.5516 97.3906 38.782 99.3922 38.9625 99.6055L39.2742 100.016H53.5969C67.1648 100.016 68.0016 100.032 69.4617 100.344C71.8242 100.82 73.5633 101 76.0898 101C88.6242 100.984 99.6984 93.3875 104.391 81.5586C105.063 79.8852 105.802 76.9813 106.113 74.8977C106.425 72.6828 106.425 68.4828 106.113 66.2188C105.014 58.5078 100.781 51.1906 94.7109 46.5477C94.3008 46.2359 93.907 45.9242 93.825 45.8586C93.7266 45.7766 94.3008 44.743 94.8094 44.0867C94.8422 44.0539 95.4492 44.3984 96.1547 44.8742C97.5164 45.7602 98.0742 45.8914 98.632 45.4156C98.8289 45.268 99.6492 44.1688 100.453 43.0039C102.012 40.7398 102.209 40.1656 101.651 39.5094C101.273 39.0828 94.9242 34.7188 94.3664 34.5055C93.5133 34.1773 93.0539 34.5711 91.3641 37.0648C90.4945 38.3445 89.7891 39.5258 89.7891 39.6734C89.7891 40.2805 90.1992 40.7891 91.282 41.5273C91.9055 41.9539 92.4141 42.3641 92.4141 42.4625C92.4141 42.7086 91.4297 44.0703 91.2492 44.0703C91.1672 44.0703 90.4289 43.7422 89.625 43.332C88.8047 42.9219 87.5906 42.3641 86.9344 42.1016C85.5727 41.5602 82.2094 40.625 81.6352 40.625C81.2578 40.625 81.2578 40.5922 81.2578 38.7547V36.868L83.8172 36.8188C87.2461 36.7531 87 37.0977 87 32.3398V28.6648L86.5734 28.3367C86.1469 27.9922 85.9992 27.9922 75.893 27.9922H65.6555L65.2617 28.4023ZM84.2109 32.4219V34.0625H75.9258H67.6406V32.4219V30.7813H75.9258H84.2109V32.4219ZM78.4687 38.4922V40.1328H75.9258H73.3828V38.4922V36.8516H75.9258H78.4687V38.4922ZM96.3187 39.1648C97.3687 39.9031 98.3039 40.5594 98.3859 40.6414C98.5172 40.7563 97.8117 41.9867 97.4836 42.2C97.3852 42.2492 93.9234 39.9852 93.3492 39.4766C93.2344 39.3781 94.1695 37.8359 94.3336 37.8359C94.3664 37.8359 95.2523 38.443 96.3187 39.1648ZM81.4055 43.3977C92.4305 45.793 100.65 54.0125 103.095 65.0703C103.62 67.5148 103.718 72.2398 103.275 74.832C102.209 80.9844 99.6984 85.857 95.3672 90.1719C90.1828 95.3398 83.2102 98.2109 75.9094 98.2109C68.543 98.1945 61.6687 95.3398 56.4023 90.0898C51.1852 84.8727 48.2977 77.9656 48.2812 70.6484C48.2812 65.743 49.4625 61.1656 51.825 56.9984C56.1562 49.3203 63.5391 44.3656 72.6445 43.0203C72.9234 42.9875 74.6461 42.9711 76.5 43.0039C79.125 43.0367 80.2078 43.1352 81.4055 43.3977Z" fill="#8BC5E5"></path><path d="M71.9883 47.2531C66.6562 48.2703 62.4234 50.5344 58.8305 54.3078C55.8281 57.4414 53.8266 61.2149 52.8422 65.5789C52.5141 67.0555 52.4648 67.7281 52.4648 70.5664C52.4648 73.1422 52.5305 74.143 52.7766 75.2258C54.1055 81.3617 57.5508 86.5789 62.4891 89.9586C65.0812 91.7305 68.1 93.0102 71.25 93.6992C73.2023 94.1258 77.3695 94.2078 79.5352 93.8797C81.668 93.5516 84.6047 92.6 86.5078 91.6485C92.9883 88.3836 97.5492 82.4445 99.0914 75.2422C99.518 73.257 99.518 67.8758 99.0914 65.8906C97.4016 58.0156 91.9875 51.5024 84.7523 48.6641C81.668 47.45 80.1422 47.1547 76.418 47.0891C74.1211 47.0563 72.7922 47.1055 71.9883 47.2531ZM74.5312 52.0274V54.2422H75.9258H77.3203V52.011V49.7797L78.3539 49.8945C80.9297 50.1899 84.1289 51.2727 86.4094 52.6344C91.7906 55.85 95.4492 61.182 96.4336 67.2524C96.5648 68.0891 96.6797 68.8602 96.6797 68.9586C96.6797 69.1227 96.1219 69.1719 94.4648 69.1719H92.25V70.5664V71.961H94.4648C96.1875 71.961 96.6797 72.0102 96.6797 72.1742C96.6797 72.8633 96.0891 75.6852 95.6789 76.9156C94.6453 80.0985 93.0867 82.6086 90.6094 85.1024C87.082 88.6461 83.2922 90.5164 78.1078 91.2383L77.3203 91.3367V89.1219V86.8906H75.9258H74.5312V89.1055C74.5312 90.3195 74.482 91.3203 74.4164 91.3203C73.7437 91.3203 70.9219 90.7297 69.6422 90.3195C66.3937 89.2695 63.8016 87.6781 61.3078 85.1844C57.8953 81.7719 55.8281 77.5555 55.2703 72.8141L55.1555 71.961H57.3867H59.6016V70.5664V69.1719H57.3867H55.1555L55.2703 68.3024C55.8445 63.5774 57.7477 59.5906 61.0289 56.1945C63.5391 53.6024 66.3609 51.8141 69.5766 50.7805C71.0859 50.3047 73.1859 49.8617 74.0883 49.8289L74.5312 49.8125V52.0274Z" fill="#8BC5E5"></path><path d="M74.4492 65.4477C72.8742 65.9727 71.775 66.9242 71.1023 68.3516C70.4789 69.6805 70.4953 71.518 71.1352 72.8141C71.9555 74.4711 73.4484 75.5211 75.45 75.8328C76.2211 75.9477 77.9437 75.5539 78.6984 75.0781L79.207 74.7664L83.1445 77.7031C85.3102 79.3273 87.1312 80.6398 87.1805 80.6562C87.3445 80.6562 88.8211 78.5234 88.7391 78.4086C88.7062 78.3266 86.9344 76.9813 84.8016 75.4063L80.9461 72.5352L81.0609 71.9609C81.6023 69.2539 80.4703 66.8094 78.1734 65.7594C77.0906 65.2672 75.4172 65.1359 74.4492 65.4477ZM76.8937 68.2531C77.5992 68.5484 78.2719 69.418 78.3867 70.2383C78.4687 70.7469 78.4031 71.075 78.1078 71.6328C77.1234 73.5523 74.5477 73.4867 73.6781 71.5344C73.3008 70.6484 73.3664 69.9758 73.9242 69.1719C74.6133 68.1547 75.7945 67.7938 76.8937 68.2531Z" fill="#8BC5E5"></path><path d="M24 70.5664V71.9609H31.5469H39.0937V70.5664V69.1719H31.5469H24V70.5664Z" fill="#8BC5E5"></path><path d="M26.7891 80.5742V81.9688H34.6641H42.5391V80.5742V79.1797H34.6641H26.7891V80.5742Z" fill="#8BC5E5"></path></g><defs><clipPath id="clip0_70_11"><rect width="130" height="130" fill="white"></rect></clipPath></defs></svg>