<svg xmlns="http://www.w3.org/2000/svg" width="130" height="130" viewBox="0 0 130 130" fill="none"><g clip-path="url(#clip0_70_30)"><circle cx="65" cy="65" r="64.5" stroke="#F1F2F4"></circle><path d="M62.1751 23.2625C59.9275 23.8695 57.6306 25.7234 56.5806 27.7906L56.0064 28.9062H52.9712C48.2134 28.9062 48.0493 29.0211 48.0493 32.0398V33.9922H43.6689C41.2407 33.9922 38.9439 34.0742 38.5337 34.1727C35.7939 34.7961 33.3822 37.0602 32.4142 39.882L32.0532 40.9648L32.004 70.0859C31.9876 88.1328 32.0204 99.6336 32.1189 100.339C32.3157 101.783 33.1853 103.571 34.1368 104.49C35.072 105.392 36.565 106.278 37.8611 106.672C38.8782 107 39.5181 107 65.1118 107C90.7056 107 91.3454 107 92.3626 106.672C93.6587 106.278 95.1517 105.392 96.0868 104.49C97.0384 103.571 97.9079 101.783 98.1048 100.339C98.2032 99.6336 98.2361 88.1328 98.2197 70.0859L98.1704 40.9648L97.8095 39.882C96.8579 37.1094 94.6103 34.9437 91.9361 34.2383C91.1814 34.0414 89.9837 33.9922 86.5712 33.9922H82.1743V32.0398C82.1743 29.0047 82.0267 28.9062 77.154 28.9062H74.0204L73.479 27.7906C72.3962 25.5922 70.247 23.9187 67.6548 23.2461C66.4243 22.9344 63.3892 22.9344 62.1751 23.2625ZM67.015 27.2492C68.59 27.9547 69.7876 29.3492 70.2798 31.0719C70.4603 31.7445 70.7064 32.1547 71.1165 32.4992L71.6907 33.0078H74.8736H78.0728V36.9453V40.8828H65.1118H52.1509V36.9453V33.0078H55.1532C58.6806 33.0078 58.9759 32.9094 59.4517 31.5805C60.0587 29.9234 60.354 29.3984 61.0267 28.6602C62.6181 26.9375 65.0134 26.3633 67.015 27.2492ZM48.0493 40.8008C48.0493 43.9672 48.1642 44.3281 49.247 44.8367C49.9032 45.132 50.5595 45.1484 64.9478 45.1484C74.3486 45.1484 80.1728 45.0828 80.5501 44.9844C80.8618 44.9023 81.3376 44.5906 81.6165 44.3117L82.0923 43.8195L82.1415 40.9484L82.1907 38.0773L86.4892 38.1266C90.6236 38.1758 90.8204 38.1922 91.5259 38.5531C92.4775 39.0617 92.9368 39.4883 93.4618 40.3906L93.9048 41.1289L93.9376 70.6602L93.9868 100.191L93.6095 100.848C93.1993 101.57 91.9853 102.472 91.0665 102.734C90.2298 102.964 39.9939 102.964 39.1572 102.734C38.2384 102.472 37.0243 101.57 36.6142 100.848L36.2368 100.191V70.857C36.2368 44.8859 36.2697 41.457 36.4829 40.932C37.0079 39.6852 37.9923 38.75 39.272 38.2906C39.5673 38.1922 41.3884 38.1102 43.915 38.1102L48.0493 38.0937V40.8008Z" fill="#97A8EF"></path><path d="M54.1525 51.9078C53.6439 52.3836 52.1345 53.8273 50.7728 55.107C49.4275 56.4031 48.279 57.4531 48.2134 57.4531C48.1642 57.4531 47.4259 56.7477 46.5892 55.8945C44.9322 54.2211 44.4564 53.975 43.4064 54.3195C42.6845 54.5656 42.3072 54.9758 42.1431 55.7305C41.8806 56.8953 42.1595 57.3383 44.8337 60.0289C47.3111 62.5391 47.3111 62.5391 48.0493 62.5391C48.4595 62.5227 48.9681 62.4242 49.165 62.3094C49.7228 62.0141 57.4665 54.6641 57.7947 54.1391C58.1392 53.5977 58.1392 52.6297 57.7947 52.0391C57.4009 51.3992 56.7282 51.0547 55.8423 51.0547C55.1532 51.0547 55.0056 51.1367 54.1525 51.9078Z" fill="#97A8EF"></path><path d="M61.7322 56.518C60.6822 57.4695 60.8298 59.0117 62.0439 59.75C62.5525 60.0617 62.9626 60.0781 74.6439 60.0781H86.7189L87.2767 59.7008C88.4087 58.9461 88.4743 57.2891 87.4079 56.4031L86.8993 55.9766H74.6111H62.3228L61.7322 56.518Z" fill="#97A8EF"></path><path d="M55.0384 67.2148C54.7923 67.3461 53.1517 68.8391 51.3962 70.5125L48.2298 73.5641L46.8845 72.1367C45.3751 70.5453 44.9157 70.25 43.9642 70.25C42.7337 70.25 41.8478 71.4805 42.1431 72.793C42.2415 73.2359 42.8157 73.9414 44.522 75.7133C47.3603 78.65 47.9181 78.9781 49.0829 78.3711C49.6079 78.0922 57.8275 70.332 57.9587 69.9711C58.0079 69.8398 58.0572 69.4133 58.0572 69.0359C58.0572 67.5266 56.3837 66.5258 55.0384 67.2148Z" fill="#97A8EF"></path><path d="M62.2079 72.1367C60.797 72.7438 60.6657 74.893 61.9618 75.7789C62.372 76.0578 63.1103 76.0742 74.5782 76.0742C86.6204 76.0742 86.7517 76.0742 87.2111 75.7297C88.5728 74.7289 88.4415 72.7273 86.9814 72.1203C86.1939 71.7758 62.979 71.7922 62.2079 72.1367Z" fill="#97A8EF"></path><path d="M52.9548 85.0484C51.79 86.1641 50.2314 87.6078 49.5095 88.2805L48.197 89.5109L46.5892 87.9031C44.8173 86.1477 44.3415 85.918 43.2587 86.3773C42.4876 86.7055 42.1103 87.2797 42.1103 88.182C42.0939 89.1992 42.422 89.675 45.0634 92.2836C47.2454 94.4328 47.3603 94.5312 48.0165 94.5312C48.3775 94.5312 48.8532 94.4656 49.0665 94.3836C49.4931 94.2195 57.3189 86.8203 57.7618 86.1805C58.1228 85.6391 58.1392 84.6383 57.7946 84.0313C57.4009 83.3914 56.7282 83.0469 55.8587 83.0469C55.104 83.0469 55.0548 83.0797 52.9548 85.0484Z" fill="#97A8EF"></path><path d="M61.7322 88.5102C60.6822 89.4617 60.8298 91.0039 62.0439 91.7422C62.5525 92.0539 62.9626 92.0703 74.6439 92.0703H86.7189L87.2767 91.693C88.4087 90.9383 88.4743 89.2813 87.4079 88.3953L86.8993 87.9688H74.6111H62.3228L61.7322 88.5102Z" fill="#97A8EF"></path></g><defs><clipPath id="clip0_70_30"><rect width="130" height="130" fill="white"></rect></clipPath></defs></svg>