<svg xmlns="http://www.w3.org/2000/svg" width="130" height="130" viewBox="0 0 130 130" fill="none"><g clip-path="url(#clip0_6_30)"><circle cx="65" cy="65" r="64.5" stroke="#F1F2F4"></circle><g clip-path="url(#clip1_6_30)"><path d="M54.057 24.3281C53.1055 24.9023 53.0234 25.2469 53.0234 29.0695C53.0234 32.2031 52.9906 32.5148 52.7445 32.5969C52.5805 32.6461 49.3484 33.2039 45.5586 33.8438C40.6859 34.6641 38.5531 35.0906 38.2578 35.3039C38.0281 35.468 37.7 35.8617 37.5195 36.1898C37.2078 36.7641 37.2078 36.7805 37.5852 39.0938C37.782 40.3734 37.9297 41.4563 37.8805 41.4891C37.8477 41.5219 35.0586 42.5063 31.6789 43.6711C28.2992 44.8359 25.1164 45.9516 24.5914 46.1484C23.4594 46.575 23 47.182 23 48.232C23 49.0688 31.8922 73.9406 32.368 74.4328C32.7617 74.8594 33.6969 74.8594 34.1562 74.4492C34.3695 74.2523 34.4844 73.9406 34.4844 73.5633C34.4844 73.2188 32.7453 68.1656 30.1367 60.8977C27.7414 54.2531 25.7891 48.7406 25.7891 48.6586C25.7891 48.5766 26.0352 48.4125 26.3305 48.3305C26.6094 48.232 29.4312 47.2641 32.5977 46.1813C35.7477 45.082 38.3727 44.2289 38.4055 44.2781C38.4547 44.3109 40.5219 56.3039 43.032 70.9219C45.5422 85.5398 47.675 97.6477 47.7734 97.8281C48.0523 98.3531 48.9383 98.8125 49.6602 98.8125C50.0211 98.8125 55.1891 97.9594 61.1445 96.9422C67.1 95.9086 71.9891 95.0883 72.0055 95.1047C72.0383 95.1211 66.1648 97.2539 58.9789 99.8461C51.793 102.438 45.8867 104.522 45.8539 104.489C45.8211 104.456 43.6719 98.5172 41.0633 91.282C38.4711 84.0469 36.207 77.993 36.043 77.8125C35.5836 77.3039 34.5992 77.3695 34.1727 77.9109C33.9758 78.157 33.8281 78.5016 33.8281 78.682C33.8281 79.1086 43.475 105.982 43.8195 106.507C44.0984 106.95 44.9187 107.344 45.5586 107.344C45.7883 107.344 55.3203 103.98 66.7391 99.8789L87.5094 92.4141L90.4297 91.9219C93.3172 91.4297 93.432 91.4297 99.4531 91.4297C104.572 91.4297 105.622 91.3969 106.016 91.1836C107.066 90.6422 107 92.693 107 62.3906V34.8281L106.377 34.2047C104.129 31.9898 96.0734 24.3773 95.7781 24.2133C95.5156 24.0656 90.725 24.0164 75.0078 24C55.0414 24 54.5656 24.0164 54.057 24.3281ZM92.9234 30.7594C92.9727 35.5664 93.0383 35.8289 94.3508 36.6L95.1055 37.043L99.8305 37.0922L104.539 37.1414V62.9813V88.8047H80.0937H55.6484V76.6641V64.507L55.2383 64.1133C54.7297 63.5883 53.9258 63.5719 53.4008 64.0641L53.0234 64.4086V77.1234C53.0234 88.0664 53.0562 89.8875 53.2695 90.3469C53.7781 91.3969 53.1383 91.3477 65.7383 91.4297L77.2227 91.5117L63.6875 93.825C56.2391 95.1047 50.1195 96.0891 50.0703 96.0234C49.9227 95.7773 39.9969 37.6172 40.0953 37.5352C40.1773 37.4367 52.3508 35.3203 52.7773 35.3203C52.9906 35.3203 53.0234 36.8461 53.0234 47.543V59.782L53.4336 60.1758C53.9094 60.668 54.6477 60.7008 55.1727 60.2742L55.5664 59.9625L55.6156 43.2938L55.6484 26.625H74.2695H92.8742L92.9234 30.7594ZM100.93 32.6953L102.816 34.4836L99.3711 34.5C96.8937 34.5 95.8602 34.4508 95.7125 34.3031C95.5648 34.1555 95.5156 33.1547 95.5156 30.8414V27.5766L97.2875 29.2336C98.2555 30.1359 99.8961 31.6945 100.93 32.6953Z" fill="#82CF9C"></path><path d="M61.8008 42.293C61.5383 42.5391 61.3906 42.8836 61.3906 43.1953C61.3906 43.507 61.5383 43.8516 61.8008 44.0977L62.1945 44.5078H80.225C98.2227 44.5078 98.2555 44.5078 98.6984 44.1633C99.2727 43.7203 99.2891 42.7523 98.7477 42.2438L98.3703 41.8828H80.2742H62.1945L61.8008 42.293Z" fill="#82CF9C"></path><path d="M61.6875 24.153C60.9492 24.4483 60.7688 25.4655 61.3266 26.1874L61.6547 26.614H79.8656C97.8469 26.614 98.0602 26.614 98.3883 26.2858C98.8969 25.7772 98.8313 24.76 98.2898 24.3335C97.8469 23.989 97.8141 23.989 79.9477 24.0054C70.0547 24.0054 61.8844 24.071 61.6875 24.153Z" fill="#82CF9C"></path><path d="M61.7187 59.7984C61.5383 59.9953 61.3906 60.3727 61.3906 60.668C61.3906 60.9633 61.5383 61.3406 61.7187 61.5375L62.0633 61.8984H80.2578C98.2555 61.8984 98.4687 61.8984 98.7969 61.5703C98.9937 61.3734 99.125 61.0289 99.125 60.668C99.125 60.307 98.9937 59.9625 98.7969 59.7656C98.4687 59.4375 98.2555 59.4375 80.2578 59.4375H62.0633L61.7187 59.7984Z" fill="#82CF9C"></path><path d="M61.7352 68.5594C61.3086 69.1008 61.2922 69.7898 61.7024 70.282L62.0141 70.6758L80.143 70.725L98.2555 70.7578L98.682 70.4133C99.2399 69.9867 99.3055 68.9695 98.7969 68.4609C98.4688 68.1328 98.2555 68.1328 80.2742 68.1328H62.0633L61.7352 68.5594Z" fill="#82CF9C"></path><path d="M61.8008 77.2383C61.5383 77.4844 61.3906 77.8289 61.3906 78.1406C61.3906 78.4523 61.5383 78.7969 61.8008 79.043L62.1945 79.4531H80.307H98.4195L98.7641 79.0758C99.2891 78.518 99.2562 77.6156 98.6984 77.1727C98.2555 76.8281 98.2227 76.8281 80.225 76.8281H62.1945L61.8008 77.2383Z" fill="#82CF9C"></path></g></g><defs><clipPath id="clip0_6_30"><rect width="130" height="130" fill="white"></rect></clipPath><clipPath id="clip1_6_30"><rect width="84" height="84" fill="white" transform="translate(23 23)"></rect></clipPath></defs></svg>